<svg width="205" height="81" viewBox="0 0 129 51" fill="none" xmlns="http://www.w3.org/2000/svg">
<g clip-path="url(#clip0_6034_396)">
<path d="M59.2142 45.9188H61.4795C62.0459 45.9188 62.4864 46.107 62.801 46.3579C62.9898 46.5461 63.1156 46.8598 63.1156 47.1734C63.1156 47.8007 62.801 48.1144 62.4234 48.3026C62.9898 48.4908 63.4303 48.8672 63.4303 49.4945C63.4303 50.3727 62.6752 50.8745 61.6054 50.8745H59.2771V45.8561L59.2142 45.9188ZM62.2347 47.3616C62.2347 46.9852 61.92 46.7343 61.3537 46.7343H60.0951V48.0517H61.2908C61.8571 48.0517 62.2347 47.8635 62.2347 47.3616ZM61.4795 48.8044H60.0951V50.1845H61.5425C62.1717 50.1845 62.4864 49.9336 62.4864 49.4945C62.4864 49.0554 62.1717 48.8044 61.4795 48.8044Z" fill="#006FBA"/>
<path d="M64.3741 45.9188H66.6395C67.2688 45.9188 67.7722 46.107 68.0868 46.4207C68.3385 46.6716 68.5273 47.048 68.5273 47.4871C68.5273 48.3026 68.0239 48.8044 67.3317 48.9926L68.6532 50.8745H67.5834L66.3249 49.1181H65.2551V50.8745H64.3741V45.8561V45.9188ZM66.5137 48.428C67.1429 48.428 67.5205 48.1144 67.5205 47.6125C67.5205 47.048 67.1429 46.797 66.4507 46.797H65.1922V48.4908H66.5137V48.428Z" fill="#006FBA"/>
<path d="M69.597 45.9188H70.478V50.9373H69.597V45.9188Z" fill="#006FBA"/>
<path d="M72.9951 46.7343H71.4219V45.9188H75.5122V46.7343H73.939V50.9373H73.058V46.7343H72.9951Z" fill="#006FBA"/>
<path d="M76.3303 45.9188H77.2112V50.9373H76.3303V45.9188Z" fill="#006FBA"/>
<path d="M78.218 50.1845L78.7214 49.5572C79.2248 49.9963 79.6653 50.1845 80.2946 50.1845C80.9239 50.1845 81.1756 49.9336 81.1756 49.5572C81.1756 49.1808 80.9868 48.9926 80.0429 48.8044C78.9731 48.5535 78.3439 48.2399 78.3439 47.2989C78.3439 46.4207 79.0361 45.8561 80.0429 45.8561C81.0497 45.8561 81.3644 46.0443 81.8678 46.4834L81.4273 47.1734C80.9868 46.8598 80.5463 46.6716 80.0429 46.6716C79.5395 46.6716 79.2248 46.9225 79.2248 47.2362C79.2248 47.6125 79.4766 47.8007 80.4205 48.0517C81.4902 48.3026 81.9936 48.679 81.9936 49.4945C81.9936 50.4354 81.2385 51 80.2317 51C79.2248 51 78.7214 50.7491 78.1551 50.1845H78.218Z" fill="#006FBA"/>
<path d="M83.1263 45.9188H84.0073V47.9889H86.3985V45.9188H87.2795V50.9373H86.3985V48.8044H84.0073V50.9373H83.1263V45.9188Z" fill="#006FBA"/>
<path d="M90.1741 48.428C90.1741 46.9852 91.2439 45.8561 92.7541 45.8561C94.2644 45.8561 94.2644 46.1697 94.7049 46.6089L94.1385 47.2362C93.761 46.8598 93.3205 46.6089 92.7541 46.6089C91.8102 46.6089 91.118 47.4244 91.118 48.3653C91.118 49.369 91.8102 50.1218 92.7541 50.1218C93.698 50.1218 93.761 49.8708 94.2014 49.4945L94.7678 50.059C94.2644 50.6236 93.698 50.9373 92.7541 50.9373C91.3068 50.9373 90.1741 49.8081 90.1741 48.3653V48.428Z" fill="#006FBA"/>
<path d="M95.0825 48.428C95.0825 46.9852 96.1522 45.8561 97.7254 45.8561C99.2986 45.8561 100.368 47.048 100.368 48.428C100.368 49.8708 99.2986 51 97.7254 51C96.1522 51 95.0825 49.8081 95.0825 48.428ZM99.4244 48.428C99.4244 47.4244 98.7322 46.6089 97.7254 46.6089C96.7186 46.6089 96.0264 47.4244 96.0264 48.3653C96.0264 49.369 96.7186 50.1218 97.7254 50.1218C98.7322 50.1218 99.4244 49.3063 99.4244 48.3653V48.428Z" fill="#006FBA"/>
<path d="M101.249 45.9188H102.13V50.1218H104.773V50.9373H101.249V45.9188Z" fill="#006FBA"/>
<path d="M105.214 48.8044V45.9188H106.095V48.7417C106.095 49.6827 106.598 50.1845 107.353 50.1845C108.108 50.1845 108.612 49.7454 108.612 48.8044V45.9188H109.493V48.7417C109.493 50.2472 108.675 51 107.353 51C106.032 51 105.214 50.2472 105.214 48.8044Z" fill="#006FBA"/>
<path d="M110.751 45.9188H111.695L113.205 48.3026L114.716 45.9188H115.66V50.9373H114.779V47.3616L113.205 49.7454L111.632 47.4244V51H110.751V45.9816V45.9188Z" fill="#006FBA"/>
<path d="M116.918 45.9188H119.183C119.75 45.9188 120.19 46.107 120.505 46.3579C120.694 46.5461 120.819 46.8598 120.819 47.1734C120.819 47.8007 120.505 48.1144 120.127 48.3026C120.694 48.4908 121.134 48.8672 121.134 49.4945C121.134 50.3727 120.379 50.8745 119.309 50.8745H116.981V45.8561L116.918 45.9188ZM119.939 47.3616C119.939 46.9852 119.624 46.7343 119.058 46.7343H117.799V48.0517H118.995C119.561 48.0517 119.939 47.8635 119.939 47.3616ZM119.183 48.8044H117.799V50.1845H119.246C119.876 50.1845 120.19 49.9336 120.19 49.4945C120.19 49.0554 119.876 48.8044 119.183 48.8044Z" fill="#006FBA"/>
<path d="M122.141 45.9188H123.022V50.9373H122.141V45.9188Z" fill="#006FBA"/>
<path d="M125.98 45.9188H126.798L129 50.9373H128.056L127.553 49.7454H125.161L124.658 50.9373H123.777L125.98 45.9188ZM127.238 48.9299L126.357 46.9225L125.476 48.9299H127.175H127.238Z" fill="#006FBA"/>
<path d="M58.5848 18.3801C54.8092 18.3801 52.0405 18.9447 50.9707 19.4465C50.9707 19.4465 50.719 19.572 50.719 19.7601V45.7306C50.719 45.8561 50.8448 45.9188 50.9078 45.9188H57.0746C57.2005 45.9188 57.2634 45.7934 57.2634 45.7306V40.2103H60.2839C66.0731 40.2103 68.9048 35.0664 68.9048 29.3579C68.9048 23.6494 65.2551 18.3173 58.459 18.3173M59.1512 35.3173H57.3892V23.3985H59.277C61.9829 23.3985 62.3605 26.3469 62.3605 29.3579C62.3605 32.369 61.9829 35.3173 59.1512 35.3173Z" fill="#006FBA"/>
<path d="M90.9922 38.8303C89.7966 33.8745 86.3356 22.583 84.2591 18.6937C84.2591 18.631 84.1332 18.5683 84.0703 18.5683H76.4561C76.3932 18.5683 76.3303 18.5683 76.2673 18.6937C74.1908 22.583 70.6669 34.1255 69.5342 38.8303V40.0221C69.5342 40.1476 69.66 40.2103 69.723 40.2103H75.5122C75.6381 40.2103 75.701 40.1476 75.701 40.0221C75.8269 39.583 75.9527 39.0185 76.0786 38.5166C76.2674 37.7011 76.4561 36.6974 76.7078 35.8192H83.441C83.6298 36.572 83.7556 37.5129 83.9444 38.2657C84.0703 38.893 84.1961 39.5203 84.322 40.0221C84.322 40.1476 84.4478 40.2103 84.5108 40.2103H90.7405C90.8664 40.2103 90.9293 40.0849 90.9293 40.0221V38.893M77.7776 31.3026C78.0922 30.1107 80.1059 23.524 80.1059 23.524H80.2947C80.2947 23.524 82.1825 30.1107 82.4342 31.3026H77.7776Z" fill="#006FBA"/>
<path d="M41.6576 23.3985C43.7971 23.3985 45.622 24.9668 45.622 24.9668H47.5727C47.6985 24.9668 47.7615 24.8413 47.7615 24.7786V20.0111C47.7615 19.9483 47.7615 19.8856 47.6356 19.8229C46.3771 19.1328 43.2937 18.3173 40.6507 18.3173C33.7917 18.3173 29.8273 23.0849 29.8273 29.3579C29.8273 35.631 33.9805 40.3985 40.6507 40.3985C47.321 40.3985 46.3771 39.583 47.6356 38.893C47.6985 38.893 47.7615 38.7675 47.7615 38.7048V33.9373C47.7615 33.8118 47.6356 33.7491 47.5727 33.7491H45.6849C45.6849 33.7491 43.9229 35.3173 41.7205 35.3173C38.1337 35.3173 36.6864 32.3063 36.6864 29.3579C36.6864 26.4096 38.1337 23.3985 41.7205 23.3985" fill="#006FBA"/>
<path d="M14.3473 23.0849C13.6551 23.0849 13.0888 23.6494 13.0888 24.3395C13.0888 25.0295 13.6551 25.5941 14.3473 25.5941C15.0395 25.5941 15.6058 25.0295 15.6058 24.3395C15.6058 23.6494 15.0395 23.0849 14.3473 23.0849ZM14.3473 26.2841C13.781 26.2841 13.3405 26.7232 13.3405 27.2878C13.3405 27.8524 13.781 28.2915 14.3473 28.2915C14.9136 28.2915 15.3541 27.8524 15.3541 27.2878C15.3541 26.7232 14.9136 26.2841 14.3473 26.2841ZM17.4936 16.8118C16.9902 16.8118 16.5497 17 16.298 17.3764C16.1722 17.0627 15.9205 16.8118 15.6688 16.6236C15.9205 16.31 16.1093 15.9336 16.1093 15.4317C16.1093 14.7417 15.6688 14.1144 15.1024 13.8635C15.6058 13.6125 15.9205 13.1107 15.9205 12.4834C15.9205 11.6052 15.2283 10.9151 14.3473 10.9151C13.4663 10.9151 12.7741 11.6052 12.7741 12.4834C12.7741 13.3616 13.0888 13.5498 13.5922 13.8635C13.0258 14.1144 12.5853 14.7417 12.5853 15.4317C12.5853 16.1218 12.7741 16.31 13.0258 16.6236C12.7741 16.8118 12.5224 17.0627 12.3966 17.3764C12.0819 17.0627 11.6414 16.8118 11.201 16.8118C10.32 16.8118 9.56486 17.5646 9.56486 18.4428C9.56486 19.321 10.32 20.0738 11.201 20.0738C12.0819 20.0738 12.1449 19.8229 12.4595 19.5092C12.6483 19.7601 12.8371 20.0111 13.0888 20.1993C12.8371 20.5129 12.6483 20.8893 12.6483 21.3284C12.6483 22.2694 13.4034 23.0221 14.3473 23.0221C15.2912 23.0221 16.0463 22.2694 16.0463 21.3284C16.0463 20.3875 15.8575 20.4502 15.6058 20.1993C15.8575 20.0111 16.1093 19.7601 16.2351 19.5092C16.5497 19.8856 16.9902 20.0738 17.4936 20.0738C18.3746 20.0738 19.1297 19.321 19.1297 18.4428C19.1297 17.5646 18.3746 16.8118 17.4936 16.8118ZM14.3473 29.4834C13.9697 29.4834 13.6551 29.797 13.6551 30.1734C13.6551 30.5498 13.9697 30.8635 14.3473 30.8635C14.7249 30.8635 15.0395 30.5498 15.0395 30.1734C15.0395 29.797 14.7249 29.4834 14.3473 29.4834ZM14.3473 32.6199C14.0327 32.6199 13.8439 32.8708 13.8439 33.1218C13.8439 33.3727 14.0956 33.6236 14.3473 33.6236C14.599 33.6236 14.8507 33.3727 14.8507 33.1218C14.8507 32.8708 14.599 32.6199 14.3473 32.6199ZM20.5771 17.1255C19.759 17.1255 19.0668 17.8155 19.0668 18.631C19.0668 19.4465 19.759 20.1365 20.5771 20.1365C21.3951 20.1365 22.0873 19.4465 22.0873 18.631C22.0873 17.8155 21.3951 17.1255 20.5771 17.1255ZM8.05462 17.1255C7.23657 17.1255 6.54437 17.8155 6.54437 18.631C6.54437 19.4465 7.23657 20.1365 8.05462 20.1365C8.87267 20.1365 9.56486 19.4465 9.56486 18.631C9.56486 17.8155 8.87267 17.1255 8.05462 17.1255Z" fill="#006FBA"/>
<path d="M14.3473 10.9779C15.1025 10.9779 15.7317 10.3506 15.7317 9.59779C15.7317 8.84502 15.1025 8.21771 14.3473 8.21771C13.5922 8.21771 12.963 8.84502 12.963 9.59779C12.963 10.3506 13.5922 10.9779 14.3473 10.9779Z" fill="#006FBA"/>
<path d="M23.7234 17.5646C23.0312 17.5646 22.4649 18.1292 22.4649 18.8192C22.4649 19.5092 23.0312 20.0738 23.7234 20.0738C24.4156 20.0738 24.982 19.5092 24.982 18.8192C24.982 18.1292 24.4156 17.5646 23.7234 17.5646Z" fill="#006FBA"/>
<path d="M6.16685 18.8192C6.16685 18.1292 5.60051 17.5646 4.90832 17.5646C4.21612 17.5646 3.64978 18.1292 3.64978 18.8192C3.64978 19.5092 4.21612 20.0738 4.90832 20.0738C5.60051 20.0738 6.16685 19.5092 6.16685 18.8192Z" fill="#006FBA"/>
<path d="M17.6824 11.2288C16.9273 11.2288 16.361 11.8561 16.361 12.5461C16.361 13.2362 16.9902 13.8635 17.6824 13.8635C18.3746 13.8635 19.0039 13.2362 19.0039 12.5461C19.0039 11.8561 18.3746 11.2288 17.6824 11.2288Z" fill="#008BB0"/>
<path d="M17.5566 14.1144C16.7385 14.1144 16.1093 14.7417 16.1093 15.5572C16.1093 16.3727 16.7385 17 17.5566 17C18.3746 17 19.0039 16.3727 19.0039 15.5572C19.0039 14.7417 18.3746 14.1144 17.5566 14.1144Z" fill="#008BB0"/>
<path d="M17.3678 20.0738C16.6127 20.0738 15.9834 20.7011 15.9834 21.4539C15.9834 22.2066 16.6127 22.8339 17.3678 22.8339C18.1229 22.8339 18.7522 22.2066 18.7522 21.4539C18.7522 20.7011 18.1229 20.0738 17.3678 20.0738Z" fill="#008BB0"/>
<path d="M17.3049 22.8967C16.4868 22.8967 15.8575 23.524 15.8575 24.3395C15.8575 25.155 16.4868 25.7823 17.3049 25.7823C18.1229 25.7823 18.7522 25.155 18.7522 24.3395C18.7522 23.524 18.1229 22.8967 17.3049 22.8967Z" fill="#008BB0"/>
<path d="M20.7659 14.3026C20.0107 14.3026 19.3815 14.9299 19.3815 15.6827C19.3815 16.4354 20.0107 17.0627 20.7659 17.0627C21.521 17.0627 22.1503 16.4354 22.1503 15.6827C22.1503 14.9299 21.521 14.3026 20.7659 14.3026Z" fill="#008BB0"/>
<path d="M11.0122 11.2288C10.2571 11.2288 9.69073 11.8561 9.69073 12.5461C9.69073 13.2362 10.32 13.8635 11.0122 13.8635C11.7044 13.8635 12.3337 13.2362 12.3337 12.5461C12.3337 11.8561 11.7044 11.2288 11.0122 11.2288Z" fill="#008BB0"/>
<path d="M11.0751 14.1144C10.2571 14.1144 9.62781 14.7417 9.62781 15.5572C9.62781 16.3727 10.2571 17 11.0751 17C11.8932 17 12.5224 16.3727 12.5224 15.5572C12.5224 14.7417 11.8932 14.1144 11.0751 14.1144Z" fill="#008BB0"/>
<path d="M11.2639 20.0738C10.5088 20.0738 9.87952 20.7011 9.87952 21.4539C9.87952 22.2066 10.5088 22.8339 11.2639 22.8339C12.019 22.8339 12.6483 22.2066 12.6483 21.4539C12.6483 20.7011 12.019 20.0738 11.2639 20.0738Z" fill="#008BB0"/>
<path d="M11.3268 22.8967C10.5088 22.8967 9.87952 23.524 9.87952 24.3395C9.87952 25.155 10.5088 25.7823 11.3268 25.7823C12.1449 25.7823 12.7742 25.155 12.7742 24.3395C12.7742 23.524 12.1449 22.8967 11.3268 22.8967Z" fill="#008BB0"/>
<path d="M7.86584 14.3026C7.11071 14.3026 6.48145 14.9299 6.48145 15.6827C6.48145 16.4354 7.11071 17.0627 7.86584 17.0627C8.62096 17.0627 9.25023 16.4354 9.25023 15.6827C9.25023 14.9299 8.62096 14.3026 7.86584 14.3026Z" fill="#008BB0"/>
<path d="M10.8863 10.9779C11.5785 10.9779 12.2078 10.4133 12.2078 9.66052C12.2078 8.90775 11.6415 8.34317 10.8863 8.34317C10.1312 8.34317 9.56488 8.90775 9.56488 9.66052C9.56488 10.4133 10.1312 10.9779 10.8863 10.9779Z" fill="#008BB0"/>
<path d="M6.98486 21.5793C6.98486 22.2694 7.5512 22.8339 8.2434 22.8339C8.9356 22.8339 9.50194 22.2694 9.50194 21.5793C9.50194 20.8893 8.9356 20.3247 8.2434 20.3247C7.5512 20.3247 6.98486 20.8893 6.98486 21.5793Z" fill="#008BB0"/>
<path d="M17.7454 10.9779C18.4375 10.9779 19.0668 10.4133 19.0668 9.66052C19.0668 8.90775 18.5005 8.34317 17.7454 8.34317C16.9902 8.34317 16.4239 8.90775 16.4239 9.66052C16.4239 10.4133 16.9902 10.9779 17.7454 10.9779Z" fill="#008BB0"/>
<path d="M14.3473 7.90406C15.0395 7.90406 15.543 7.33948 15.543 6.71218C15.543 6.08487 14.9766 5.52029 14.3473 5.52029C13.7181 5.52029 13.1517 6.08487 13.1517 6.71218C13.1517 7.33948 13.7181 7.90406 14.3473 7.90406Z" fill="#008BB0"/>
<path d="M20.4512 22.7712C21.1434 22.7712 21.7098 22.2066 21.7098 21.5166C21.7098 20.8266 21.1434 20.262 20.4512 20.262C19.759 20.262 19.1927 20.8266 19.1927 21.5166C19.1927 22.2066 19.759 22.7712 20.4512 22.7712Z" fill="#008BB0"/>
<path d="M8.55804 26.5978C8.11755 26.5978 7.73999 26.9742 7.73999 27.4133C7.73999 27.8524 8.11755 28.2288 8.55804 28.2288C8.99853 28.2288 9.37609 27.8524 9.37609 27.4133C9.37609 26.9742 8.99853 26.5978 8.55804 26.5978Z" fill="#54B948"/>
<path d="M1.95073 13.2989C1.95073 12.797 1.57317 12.4207 1.06976 12.4207C0.566343 12.4207 0.188782 12.797 0.188782 13.2989C0.188782 13.8007 0.566343 14.1771 1.06976 14.1771C1.57317 14.1771 1.95073 13.8007 1.95073 13.2989Z" fill="#54B948"/>
<path d="M4.15319 10.9151C4.59368 10.9151 4.97124 10.5387 4.97124 10.0996C4.97124 9.66052 4.59368 9.28413 4.15319 9.28413C3.7127 9.28413 3.33514 9.66052 3.33514 10.0996C3.33514 10.5387 3.7127 10.9151 4.15319 10.9151Z" fill="#54B948"/>
<path d="M0.755122 11.166C1.19561 11.166 1.51024 10.8524 1.51024 10.4133C1.51024 9.97417 1.19561 9.66051 0.755122 9.66051C0.314634 9.66051 0 9.97417 0 10.4133C0 10.8524 0.314634 11.166 0.755122 11.166Z" fill="#54B948"/>
<path d="M17.8083 7.71587C18.3746 7.71587 18.8151 7.27675 18.8151 6.71218C18.8151 6.1476 18.3746 5.70849 17.8083 5.70849C17.2419 5.70849 16.8015 6.1476 16.8015 6.71218C16.8015 7.27675 17.2419 7.71587 17.8083 7.71587Z" fill="#54B948"/>
<path d="M10.8234 7.71587C11.3898 7.71587 11.8302 7.27675 11.8302 6.71218C11.8302 6.1476 11.3898 5.70849 10.8234 5.70849C10.2571 5.70849 9.81659 6.1476 9.81659 6.71218C9.81659 7.27675 10.2571 7.71587 10.8234 7.71587Z" fill="#54B948"/>
<path d="M14.3473 1.56827C14.7878 1.56827 15.1654 1.19188 15.1654 0.752767C15.1654 0.313653 14.7878 -0.0627308 14.3473 -0.0627308C13.9069 -0.0627308 13.5293 0.313653 13.5293 0.752767C13.5293 1.19188 13.9069 1.56827 14.3473 1.56827Z" fill="#54B948"/>
<path d="M17.9341 4.51661C18.3746 4.51661 18.6893 4.20295 18.6893 3.76384C18.6893 3.32472 18.3746 3.01107 17.9341 3.01107C17.4937 3.01107 17.179 3.32472 17.179 3.76384C17.179 4.20295 17.4937 4.51661 17.9341 4.51661Z" fill="#54B948"/>
<path d="M10.7605 4.51661C11.201 4.51661 11.5156 4.20295 11.5156 3.76384C11.5156 3.32472 11.201 3.01107 10.7605 3.01107C10.32 3.01107 10.0054 3.32472 10.0054 3.76384C10.0054 4.20295 10.32 4.51661 10.7605 4.51661Z" fill="#54B948"/>
<path d="M27.8766 11.166C28.3171 11.166 28.6317 10.8524 28.6317 10.4133C28.6317 9.97417 28.3171 9.66051 27.8766 9.66051C27.4361 9.66051 27.1215 9.97417 27.1215 10.4133C27.1215 10.8524 27.4361 11.166 27.8766 11.166Z" fill="#54B948"/>
<path d="M22.9683 27.0369C22.6537 27.0369 22.3391 27.2878 22.3391 27.6642C22.3391 28.0406 22.5908 28.2915 22.9683 28.2915C23.3459 28.2915 23.5976 28.0406 23.5976 27.6642C23.5976 27.2878 23.3459 27.0369 22.9683 27.0369Z" fill="#54B948"/>
<path d="M19.2556 27.4133C19.2556 27.8524 19.6332 28.2288 20.0737 28.2288C20.5142 28.2288 20.8917 27.8524 20.8917 27.4133C20.8917 26.9742 20.5142 26.5978 20.0737 26.5978C19.6332 26.5978 19.2556 26.9742 19.2556 27.4133Z" fill="#54B948"/>
<path d="M27.5619 12.4834C27.1215 12.4834 26.681 12.8598 26.681 13.3616C26.681 13.8635 27.0585 14.2399 27.5619 14.2399C28.0654 14.2399 28.4429 13.8635 28.4429 13.3616C28.4429 12.8598 28.0654 12.4834 27.5619 12.4834Z" fill="#54B948"/>
<path d="M24.2268 11.8561C23.5975 11.8561 23.0941 12.3579 23.0941 12.9852C23.0941 13.6125 23.5975 14.1144 24.2268 14.1144C24.8561 14.1144 25.3595 13.6125 25.3595 12.9852C25.3595 12.3579 24.8561 11.8561 24.2268 11.8561Z" fill="#54B948"/>
<path d="M5.72631 27.0369C5.41168 27.0369 5.09705 27.2878 5.09705 27.6642C5.09705 28.0406 5.34875 28.2915 5.72631 28.2915C6.10388 28.2915 6.35558 28.0406 6.35558 27.6642C6.35558 27.2878 6.10388 27.0369 5.72631 27.0369Z" fill="#54B948"/>
<path d="M24.5414 10.9151C24.9819 10.9151 25.3595 10.5387 25.3595 10.0996C25.3595 9.66052 24.9819 9.28413 24.5414 9.28413C24.1009 9.28413 23.7234 9.66052 23.7234 10.0996C23.7234 10.5387 24.1009 10.9151 24.5414 10.9151Z" fill="#54B948"/>
<path d="M4.4049 14.1144C5.03417 14.1144 5.53758 13.6125 5.53758 12.9852C5.53758 12.3579 5.03417 11.8561 4.4049 11.8561C3.77563 11.8561 3.27222 12.3579 3.27222 12.9852C3.27222 13.6125 3.77563 14.1144 4.4049 14.1144Z" fill="#54B948"/>
<path d="M8.36926 23.3985C7.73999 23.3985 7.2995 23.9004 7.2995 24.4649C7.2995 25.0295 7.80291 25.5314 8.36926 25.5314C8.9356 25.5314 9.43901 25.0295 9.43901 24.4649C9.43901 23.9004 8.9356 23.3985 8.36926 23.3985Z" fill="#00A160"/>
<path d="M7.67706 13.8007C8.30632 13.8007 8.74681 13.2989 8.74681 12.7343C8.74681 12.1697 8.2434 11.6679 7.67706 11.6679C7.11071 11.6679 6.6073 12.1697 6.6073 12.7343C6.6073 13.2989 7.11071 13.8007 7.67706 13.8007Z" fill="#00A160"/>
<path d="M1.82489 18.4428C1.44732 18.4428 1.06976 18.7565 1.06976 19.1956C1.06976 19.6347 1.3844 19.9483 1.82489 19.9483C2.26537 19.9483 2.58001 19.6347 2.58001 19.1956C2.58001 18.7565 2.26537 18.4428 1.82489 18.4428Z" fill="#00A160"/>
<path d="M14.3473 4.7048C14.9137 4.7048 15.3542 4.26568 15.3542 3.70111C15.3542 3.13653 14.9137 2.69742 14.3473 2.69742C13.781 2.69742 13.3405 3.13653 13.3405 3.70111C13.3405 4.26568 13.781 4.7048 14.3473 4.7048Z" fill="#00A160"/>
<path d="M23.4717 20.8266C22.9683 20.8266 22.5278 21.2657 22.5278 21.7675C22.5278 22.2694 22.9683 22.7085 23.4717 22.7085C23.9751 22.7085 24.4156 22.2694 24.4156 21.7675C24.4156 21.2657 23.9751 20.8266 23.4717 20.8266Z" fill="#00A160"/>
<path d="M23.9751 14.679C23.2829 14.679 22.7166 15.2435 22.7166 15.9336C22.7166 16.6236 23.2829 17.1882 23.9751 17.1882C24.6673 17.1882 25.2336 16.6236 25.2336 15.9336C25.2336 15.2435 24.6673 14.679 23.9751 14.679Z" fill="#00A160"/>
<path d="M26.8697 18.4428C26.4922 18.4428 26.1146 18.7565 26.1146 19.1956C26.1146 19.6347 26.4293 19.9483 26.8697 19.9483C27.3102 19.9483 27.6249 19.6347 27.6249 19.1956C27.6249 18.7565 27.3102 18.4428 26.8697 18.4428Z" fill="#00A160"/>
<path d="M20.9546 13.8007C21.5839 13.8007 22.0244 13.2989 22.0244 12.7343C22.0244 12.1697 21.521 11.6679 20.9546 11.6679C20.3883 11.6679 19.8849 12.1697 19.8849 12.7343C19.8849 13.2989 20.3883 13.8007 20.9546 13.8007Z" fill="#00A160"/>
<path d="M6.10393 21.7675C6.10393 21.2657 5.66344 20.8266 5.16003 20.8266C4.65661 20.8266 4.21613 21.2657 4.21613 21.7675C4.21613 22.2694 4.65661 22.7085 5.16003 22.7085C5.66344 22.7085 6.10393 22.2694 6.10393 21.7675Z" fill="#00A160"/>
<path d="M4.65661 17.1255C5.3488 17.1255 5.91514 16.5609 5.91514 15.8708C5.91514 15.1808 5.3488 14.6162 4.65661 14.6162C3.96441 14.6162 3.39807 15.1808 3.39807 15.8708C3.39807 16.5609 3.96441 17.1255 4.65661 17.1255Z" fill="#00A160"/>
<path d="M20.2624 25.5941C20.8917 25.5941 21.3322 25.0922 21.3322 24.5277C21.3322 23.9631 20.8288 23.4613 20.2624 23.4613C19.6961 23.4613 19.1927 23.9631 19.1927 24.5277C19.1927 25.0922 19.6961 25.5941 20.2624 25.5941Z" fill="#00A160"/>
</g>
<defs>
<clipPath id="clip0_6034_396">
<rect width="129" height="51" fill="white"/>
</clipPath>
</defs>
</svg>
