<svg xmlns="http://www.w3.org/2000/svg" width="250" height="49" viewBox="0 0 250 49"><title>2018-10-11-logo-e-courier-no-tag-blue-green</title><rect width="250" height="49" fill="none"/><path d="M191.54,39.34A1.69,1.69,0,0,1,193.22,38h3.42c1,0,1.25.49,1,1.37l-1,3.63A1.59,1.59,0,0,1,195,44.23h-3.42a.92.92,0,0,1-1-1.26Z" transform="translate(0 -0.17)" fill="#49a046"/><path d="M218.73,39.77h-.13c-2.54.16-4.72.41-8.13.41-4,0-5-1.87-2.81-10,2.61-9.89,4.85-10.44,8.21-10.44s5.16.15,7.57.25h0c1.91.07,2,0,2.4-1.66s.22-1.72-1.31-2.06h-.08a41.26,41.26,0,0,0-8.28-1.13c-5.62,0-10.26,2.31-13.56,14.84s.26,14.89,5.71,14.89a32.68,32.68,0,0,0,9.59-1.16,6.24,6.24,0,0,0,1-.27c.67-.26.91-.68,1.22-1.88C220.58,39.82,220.57,39.7,218.73,39.77Z" transform="translate(0 -0.17)" fill="#49a046"/><path d="M242.72,14.86l-1.29,0c-1.24,0-2.45.09-3.62.17a32.86,32.86,0,0,0-5.36.88l-.66.12h-.08a7.23,7.23,0,0,0-1.37.35c-.52.23-.72.61-1,1.56,0,0,0,.06,0,.09l-.1.38c-.33,1.29-.21,1.49,1.57,1.42h0l2.22-.11,1.35-.07c3-.16,4.46-.26,6.66-.26,2.7,0,4.1.93,3.23,4.23,0,.05-.84,3.18-.84,3.18s-9.73,0-9.73,0a9.63,9.63,0,0,0-9.63,7.47l-.84,3.19c-1.18,4.45,1.2,7.36,5.64,7.42,4.85,0,10.56-3.57,10.77-3.74l0,0a15.19,15.19,0,0,0,.21,1.94c.26,1.25.84,1.42,2.75,1.43a1.54,1.54,0,0,0,1.53-1.25l.2-.77.75-2.86,4.25-16.1C251.08,17.22,247.74,14.8,242.72,14.86Zm-2.1,22.75s-5.81,2.69-9.89,2.69c-1.76,0-2.95-.71-2.26-3.29l.62-2.37A4.33,4.33,0,0,1,233,31.23l9.49-.77Z" transform="translate(0 -0.17)" fill="#49a046"/><path d="M203.43,15.33a.75.75,0,0,0-.34-.08H203a17.25,17.25,0,0,0-2.3-.1c-3.64,0-6.93,2-9.44,4-.22-3.44-.29-3.68-3.32-3.68h-2.08a1.72,1.72,0,0,0-1.71,1.43v0l-5.79,21.61-1.3,4.84a.92.92,0,0,0,1,1.26h5.17a1.54,1.54,0,0,0,1.55-1.26l1.08-4L189.46,26c2.59-2.7,5.05-3.24,8.25-3.24l3.34.1a1.23,1.23,0,0,0,1.11-.87l1.56-5.84A.67.67,0,0,0,203.43,15.33Z" transform="translate(0 -0.17)" fill="#2d80c3"/><path d="M159.48,33.17h9.31c5.28,0,8.72-2.13,10.12-7.33,2.51-9.46-.83-10.6-9.55-10.63-9.26,0-13.36,2.15-16.72,14.67-2.87,10.7-1.82,15,5.59,15h.89c4.18,0,9.51-.08,13.68-1.27.89-.38,1-.83,1.09-1.11l.24-.91.63-2.35c.3-1.12-.25-1-1.41-.87l-.6.07h0a53.27,53.27,0,0,1-7.45.28h-1.16C160,38.73,158.09,38.4,159.48,33.17Zm8.75-12.08c3.69,0,4.06.66,3.08,4.34a2.82,2.82,0,0,1-3,2.2H161C162.61,21.31,164.16,21.09,168.23,21.09Z" transform="translate(0 -0.17)" fill="#2d80c3"/><path d="M152.2,15.43h-5.07a1.72,1.72,0,0,0-1.71,1.43l-1.3,4.84-4.5,16.81-1.3,4.84a.92.92,0,0,0,1,1.26h5.07A1.71,1.71,0,0,0,146,43.34l1.3-4.84,4.51-16.81,1.29-4.84C153.37,16,153.08,15.43,152.2,15.43Z" transform="translate(0 -0.17)" fill="#2d80c3"/><path d="M155,5.17h-5.24a1.72,1.72,0,0,0-1.71,1.43l-1.3,4.84a.92.92,0,0,0,1,1.26H153a1.53,1.53,0,0,0,1.55-1.26l1.29-4.84C156.07,5.82,155.86,5.17,155,5.17Z" transform="translate(0 -0.17)" fill="#2d80c3"/><path d="M142.51,15.33a.77.77,0,0,0-.35-.08h-.05a17.23,17.23,0,0,0-2.3-.1c-3.64,0-6.92,2-9.44,4-.21-3.44-.29-3.68-3.32-3.68H125a1.72,1.72,0,0,0-1.7,1.43v0l-5.79,21.61-1.3,4.84a.92.92,0,0,0,1,1.26h5.18a1.53,1.53,0,0,0,1.55-1.26l1.08-4L128.54,26c2.59-2.7,5.05-3.24,8.25-3.24l3.34.1a1.22,1.22,0,0,0,1.11-.87l1.57-5.84A.66.66,0,0,0,142.51,15.33Z" transform="translate(0 -0.17)" fill="#2d80c3"/><path d="M118.77,15.43h-5.18a1.72,1.72,0,0,0-1.71,1.43l-1.3,4.84-3.93,14.67c-2.73,1.75-4.65,2.53-7.73,2.53-1.93,0-3-1-2.21-3.9l3.56-13.3,1.3-4.84c.21-.77,0-1.43-.83-1.43H95.57a1.72,1.72,0,0,0-1.71,1.43l-1.29,4.84L89,34.83c-1.51,5.6-.83,10.27,6,10.27,4.46,0,6.9-1.87,10.27-3.57h0c.09.39.15.75.23,1.06.33,1.36.79,2,3.24,2h2.2a1.53,1.53,0,0,0,1.55-1.26l1.3-4.84,4.5-16.81,1.3-4.84C119.8,16.09,119.59,15.43,118.77,15.43Z" transform="translate(0 -0.17)" fill="#2d80c3"/><path d="M78.56,15.34c-9.86,0-14.23,3.35-17.43,15.27-2.8,10.44-.62,14.46,9.46,14.46,10.25,0,14.31-3.63,17.21-14.46C90.92,19,88.65,15.34,78.56,15.34Zm2.49,9.53a6.87,6.87,0,0,1-3.17,4L76.33,39.6H67.69l4.19-10.74a3.79,3.79,0,0,1-1-4A7,7,0,0,1,77.27,20,3.72,3.72,0,0,1,81.05,24.88Z" transform="translate(0 -0.17)" fill="#2d80c3"/><path d="M72.71,14.91a12.56,12.56,0,0,1,1.75-4,7.63,7.63,0,0,1,5.29-2.32H80a4.43,4.43,0,0,1,4.2,2.28c.31.65.13,2.3-.21,4.09a10.88,10.88,0,0,1,3.66,2.26c.5-1.92,1.09-4.19,1.17-4.65.65-3.82-2.43-7.07-7-7.38l-.86,0a13.37,13.37,0,0,0-7.17,2,10.71,10.71,0,0,0-4.59,5.29c-.14.42-.74,2.83-1.22,4.8A20.06,20.06,0,0,1,72.71,14.91Z" transform="translate(0 -0.17)" fill="#2d80c3"/><path d="M62,16.76l-.23-.13C58.45,15,54.07,15.17,50,15.16h-.84C43.56,15.15,38.79,18,35.56,30V30c-.19.71-.36,1.39-.5,2h1.22a2.19,2.19,0,0,1,1.85.77,2.25,2.25,0,0,1,.27,2l-.48,1.69a2.82,2.82,0,0,1-2.79,2.21H34.3c.29,4.76,3,6.1,6.92,6.1h.84c4.05,0,8.34.18,12.58-1.48l.3-.12a1.23,1.23,0,0,0,.78-.88l.2-.76.53-2c.31-1.15.06-1.42-.63-1.4l-.44,0c-2,.15-5.71.38-9.19.38-2.69,0-4-.49-4-3.12a24.46,24.46,0,0,1,.84-4.77l.07-.3c0-.15.08-.3.12-.46l.13-.46c0-.1.06-.2.08-.3a28.47,28.47,0,0,1,1.72-4.77c1.36-2.63,2.93-3.12,5.62-3.12,3.48,0,7.07.23,9,.38l.43,0c.68,0,1.07-.25,1.38-1.41l.53-2,.2-.76A.68.68,0,0,0,62,16.76Z" transform="translate(0 -0.17)" fill="#2d80c3"/><path d="M36.26,33.22H27.73A1.7,1.7,0,0,0,26,34.59l0,.11-.41,1.47,0,.11c-.24.88,0,1.37,1,1.37h8.54a1.69,1.69,0,0,0,1.69-1.37l0-.11.41-1.47,0-.11C37.51,33.71,37.26,33.22,36.26,33.22Z" transform="translate(0 -0.17)" fill="#49a046"/><path d="M8.43,33h9.31c5.28,0,8.72-2.14,10.12-7.34C30.37,16.22,27,15.07,18.31,15,9.05,15,5,17.19,1.6,29.71c-2.87,10.7-1.82,15,5.59,15h.89c4.18,0,9.51-.08,13.67-1.27.9-.38,1-.82,1.1-1.11l.24-.9.63-2.36c.3-1.12-.25-1-1.4-.86l-.6.08h0a53.6,53.6,0,0,1-7.45.28H13.11C8.92,38.56,7,38.23,8.43,33Zm8.75-12.09c3.69,0,4.07.66,3.08,4.34a2.82,2.82,0,0,1-3,2.2H9.92C11.55,21.14,13.1,20.92,17.18,20.92Z" transform="translate(0 -0.17)" fill="#49a046"/></svg>